<svg width="226" height="40" viewBox="0 0 226 119" fill="none" xmlns="http://www.w3.org/2000/svg">
<g clip-path="url(#clip0_495_38)">
<path fill-rule="evenodd" clip-rule="evenodd" d="M101.64 6.81905L97.6499 9.91005L74.3149 27.9621L77.4149 31.9621L100.74 13.9061L105.863 20.527L108.963 24.5201L112.963 21.429L124.552 12.4521L127.787 16.6241L132.158 8.30405L136.518 -0.00195312L127.382 2.14206L118.236 4.28105L121.456 8.44806L109.867 17.4311L104.743 10.8141L101.643 6.81406" fill="white"/>
<path d="M84.487 40.6328H74.563V48.5618H84.487V40.6328Z" fill="white"/>
<path d="M147.334 8.07422H137.415V48.5622H147.334V8.07422Z" fill="white"/>
<path d="M134.768 20.7705H124.849V48.5625H134.768V20.7705Z" fill="white"/>
<path d="M122.202 27.9473H112.274V48.5623H122.202V27.9473Z" fill="white"/>
<path d="M109.627 32.4521H99.709V48.5621H109.627V32.4521Z" fill="white"/>
<path d="M97.0571 38.0684H87.1331V48.5624H97.0571V38.0684Z" fill="white"/>
<path d="M22.733 78.565H8.63801V87.659H24.381V94.759H0V56.457H23.586V63.557H8.63801V71.513H22.733V78.56" fill="white"/>
<path d="M47.626 94.7639L44.159 87.83C42.738 85.159 41.829 83.1699 40.749 80.9529H40.636C39.836 83.1699 38.873 85.158 37.623 87.83L34.497 94.7639H24.609L35.691 75.386L25.006 56.46H34.952L38.306 63.451C39.443 65.781 40.295 67.6559 41.206 69.8159H41.32C42.229 67.3719 42.967 65.667 43.933 63.451L47.173 56.46H57.061L46.261 75.1599L57.628 94.7679H47.628" fill="white"/>
<path d="M59.448 56.9687C63.3215 56.3791 67.2373 56.1115 71.155 56.1687C76.498 56.1687 80.362 57.1917 82.919 59.2947C84.2221 60.3555 85.2638 61.7018 85.9636 63.2294C86.6634 64.757 87.0026 66.4251 86.955 68.1047C86.955 71.9117 85.761 75.0947 83.488 77.1967C80.533 79.9257 76.1 81.2327 70.988 81.2327C69.9979 81.2554 69.0079 81.179 68.033 81.0047V94.7597H59.452V56.9687M68.033 74.3597C68.9883 74.5425 69.9609 74.6189 70.933 74.5877C75.533 74.5877 78.378 72.2577 78.378 68.3927C78.378 64.8687 75.991 62.7657 71.615 62.7657C70.4144 62.723 69.2129 62.8183 68.034 63.0497L68.033 74.3597Z" fill="white"/>
<path d="M98.4921 84.9301L95.8211 94.7631H86.8411L98.5491 56.4561H109.859L121.794 94.7631H112.473L109.518 84.9301H98.4921ZM108.211 78.451L105.827 70.325C105.202 68.052 104.52 65.153 103.952 62.937H103.781C103.269 65.21 102.644 68.109 102.076 70.325L99.7461 78.4521L108.211 78.451Z" fill="white"/>
<path d="M124.068 94.764V56.457H134.184L142.14 70.496C144.485 74.7432 146.573 79.1275 148.392 83.625H148.505C148.006 78.2974 147.779 72.9478 147.823 67.597V56.457H155.78V94.764H146.686L138.503 79.986C136.038 75.6036 133.818 71.0876 131.853 66.459H131.627C131.91 71.574 132.027 76.973 132.027 83.226V94.763H124.072" fill="white"/>
<path d="M158.053 90.1031L176.297 63.7861V63.6151H159.697V56.4531H187.489V61.4531L169.642 87.3691V87.5961H187.772V94.7581H158.053V90.0971" fill="white"/>
<path d="M206.645 95.388C195.336 95.388 188.63 86.807 188.63 75.8951C188.63 64.4151 196.018 55.832 207.27 55.832C219.035 55.832 225.457 64.642 225.457 75.213C225.457 87.83 217.899 95.388 206.701 95.388H206.645ZM207.045 88.5121C212.9 88.5121 216.252 82.999 216.252 75.498C216.252 68.62 213.013 62.709 207.045 62.709C201.077 62.709 197.724 68.509 197.724 75.668C197.724 82.885 201.191 88.5121 206.987 88.5121H207.045Z" fill="white"/>
<path d="M29.59 111.041H24.072V117.07H30.244V117.887H23.111V104.112H29.917V104.929H24.072V110.222H29.59V111.04" fill="white"/>
<path d="M39.34 117.888L37.255 114.495C36.397 113.207 35.906 112.43 35.455 111.633H35.391C34.962 112.433 34.512 113.187 33.654 114.515L31.692 117.888H30.547L34.92 110.898L30.731 104.114H31.855L34.062 107.792C34.634 108.712 35.062 109.407 35.493 110.142H35.534C35.963 109.365 36.393 108.711 36.985 107.792L39.295 104.114H40.439L36.025 110.814L40.46 117.886H39.336" fill="white"/>
<path d="M41.754 104.276C42.7237 104.089 43.7096 104 44.697 104.01C46.0156 103.906 47.3222 104.324 48.335 105.175C48.6884 105.527 48.9651 105.949 49.1479 106.414C49.3306 106.878 49.4154 107.376 49.397 107.875C49.4439 108.878 49.0998 109.86 48.437 110.614C47.9113 111.145 47.2785 111.558 46.5807 111.826C45.8829 112.094 45.1362 112.21 44.39 112.167C43.8269 112.189 43.2633 112.134 42.715 112.004V117.89H41.754V104.276ZM42.715 111.143C43.2886 111.291 43.8799 111.358 44.472 111.343C46.925 111.343 48.416 110.137 48.416 107.95C48.416 105.785 46.843 104.823 44.656 104.823C44.0052 104.812 43.3549 104.866 42.715 104.986V111.143Z" fill="white"/>
<path d="M52.628 113.064L50.928 117.887H49.928L54.914 104.112H55.854L60.82 117.887H59.82L58.083 113.064H52.627M57.777 112.246L56.102 107.646C55.775 106.685 55.59 105.991 55.386 105.215H55.345C55.145 106.015 54.916 106.726 54.629 107.605L52.929 112.244L57.777 112.246Z" fill="white"/>
<path d="M61.929 117.888V104.113H62.849L68.224 112.246C69.1555 113.646 70.015 115.092 70.799 116.579L70.84 116.558C70.697 114.698 70.677 113.125 70.677 110.958V104.112H71.638V117.887H70.718L65.466 109.875C64.444 108.281 63.504 106.83 62.789 105.42L62.748 105.44C62.848 107.14 62.87 108.629 62.87 110.917V117.886H61.93" fill="white"/>
<path d="M73.9471 104.296C75.1099 104.109 76.2854 104.014 77.463 104.01C79.977 104.01 81.876 104.685 83.022 105.89C83.6111 106.529 84.0664 107.279 84.3611 108.097C84.6558 108.915 84.7839 109.783 84.7381 110.651C84.8176 112.559 84.1749 114.427 82.938 115.883C81.712 117.211 79.648 117.983 76.991 117.983C75.9746 117.994 74.9583 117.954 73.946 117.861V104.291M74.907 117.065C75.6468 117.145 76.391 117.179 77.1351 117.165C81.5491 117.165 83.735 114.692 83.735 110.707C83.756 107.207 81.8141 104.821 77.4001 104.821C76.5645 104.816 75.7302 104.883 74.9061 105.021L74.907 117.065Z" fill="white"/>
<path d="M92.631 117.888V111.92L88.2369 104.113H89.3369L91.6059 108.22C92.1769 109.303 92.689 110.182 93.159 111.184H93.2C93.629 110.243 94.1809 109.284 94.7939 108.2L97.144 104.113H98.2439L93.5839 111.94V117.888H92.6229" fill="white"/>
<path d="M110.128 110.856C110.128 115.721 107.164 118.111 103.976 118.111C100.583 118.111 97.967 115.434 97.967 111.142C97.967 106.626 100.686 103.887 104.139 103.887C107.614 103.887 110.128 106.588 110.128 110.856ZM98.969 111.101C98.969 114.207 100.769 117.293 104.038 117.293C107.307 117.293 109.127 114.33 109.127 110.917C109.127 108.017 107.532 104.704 104.079 104.704C100.588 104.705 98.968 107.894 98.968 111.102L98.969 111.101Z" fill="white"/>
<path d="M112.522 104.113V112.43C112.522 115.93 114.157 117.274 116.199 117.274C118.469 117.274 120.042 115.803 120.042 112.43V104.113H121.023V112.329C121.023 116.559 118.733 118.112 116.138 118.112C113.727 118.112 111.561 116.702 111.561 112.492V104.113H112.522Z" fill="white"/>
<path d="M123.335 104.296C124.311 104.105 125.304 104.009 126.299 104.01C126.964 103.946 127.635 104.014 128.273 104.21C128.911 104.407 129.504 104.728 130.018 105.155C130.65 105.813 130.995 106.694 130.979 107.607C130.994 108.422 130.737 109.219 130.248 109.871C129.759 110.523 129.066 110.993 128.279 111.207V111.248C129.379 111.595 130.079 112.637 130.404 114.17C130.613 115.442 130.956 116.689 131.426 117.89H130.404C130.018 116.799 129.724 115.678 129.525 114.538C129.116 112.556 128.259 111.656 126.439 111.574H124.294V117.889H123.333V104.296M124.294 110.775H126.48C128.606 110.775 129.996 109.59 129.996 107.775C129.996 105.67 128.442 104.811 126.276 104.811C125.611 104.8 124.946 104.862 124.294 104.994V110.775Z" fill="white"/>
<path d="M136.091 104.296C136.997 104.096 137.923 104 138.85 104.01C139.497 103.947 140.151 104.014 140.772 104.207C141.393 104.4 141.969 104.715 142.467 105.134C142.752 105.437 142.972 105.794 143.117 106.184C143.261 106.573 143.325 106.988 143.306 107.403C143.278 108.099 143.034 108.77 142.61 109.322C142.185 109.875 141.6 110.282 140.935 110.489V110.53C141.751 110.69 142.486 111.127 143.014 111.768C143.543 112.409 143.833 113.214 143.835 114.045C143.849 114.531 143.766 115.014 143.591 115.466C143.416 115.919 143.152 116.332 142.814 116.681C141.914 117.622 140.422 117.989 138.48 117.989C137.682 117.994 136.884 117.953 136.091 117.867V104.297M137.051 110.162H139.075C141.056 110.162 142.303 108.997 142.303 107.462C142.303 105.521 140.852 104.826 138.809 104.826C138.219 104.804 137.629 104.852 137.051 104.969V110.162ZM137.051 117.071C137.614 117.155 138.183 117.188 138.751 117.171C140.856 117.171 142.838 116.414 142.838 114.064C142.838 111.898 140.978 110.958 138.791 110.958H137.054L137.051 117.071Z" fill="white"/>
<path d="M146.352 104.113V112.43C146.352 115.93 147.988 117.274 150.031 117.274C152.299 117.274 153.873 115.803 153.873 112.43V104.113H154.854V112.329C154.854 116.559 152.566 118.112 149.97 118.112C147.558 118.112 145.393 116.702 145.393 112.492V104.113H146.353" fill="white"/>
<path d="M156.716 116.355C157.611 116.952 158.663 117.273 159.74 117.275C161.785 117.275 163.051 116.109 163.051 114.414C163.051 112.86 162.251 111.961 160.272 111.185C158.044 110.409 156.716 109.264 156.716 107.385C156.716 105.362 158.391 103.891 160.722 103.891C161.677 103.858 162.623 104.084 163.461 104.545L163.093 105.362C162.363 104.911 161.518 104.684 160.661 104.708C158.433 104.708 157.677 106.139 157.677 107.222C157.677 108.755 158.555 109.532 160.538 110.308C162.807 111.228 164.012 112.249 164.012 114.314C164.012 116.314 162.581 118.114 159.639 118.114C158.475 118.116 157.335 117.79 156.348 117.174L156.716 116.357" fill="white"/>
<path d="M166.589 104.112H165.628V117.887H166.589V104.112Z" fill="white"/>
<path d="M168.923 117.888V104.113H169.842L175.218 112.246C176.149 113.646 177.008 115.092 177.792 116.579L177.833 116.558C177.69 114.698 177.67 113.125 177.67 110.958V104.112H178.63V117.887H177.711L172.459 109.875C171.437 108.281 170.497 106.83 169.781 105.42L169.74 105.44C169.84 107.14 169.862 108.629 169.862 110.917V117.886H168.923" fill="white"/>
<path d="M187.417 111.041H181.9V117.07H188.071V117.887H180.939V104.112H187.744V104.929H181.899V110.222H187.416V111.04" fill="white"/>
<path d="M188.993 116.355C189.888 116.952 190.94 117.273 192.017 117.275C194.061 117.275 195.328 116.109 195.328 114.414C195.328 112.86 194.528 111.961 192.548 111.185C190.321 110.409 188.993 109.264 188.993 107.385C188.993 105.362 190.668 103.891 192.993 103.891C193.949 103.858 194.895 104.084 195.733 104.545L195.365 105.362C194.635 104.911 193.79 104.684 192.933 104.708C190.706 104.708 189.95 106.139 189.95 107.222C189.95 108.755 190.828 109.532 192.811 110.308C195.079 111.228 196.284 112.249 196.284 114.314C196.284 116.314 194.854 118.114 191.911 118.114C190.748 118.116 189.608 117.79 188.621 117.174L188.989 116.357" fill="white"/>
<path d="M197.454 116.355C198.35 116.952 199.401 117.272 200.478 117.275C202.523 117.275 203.789 116.109 203.789 114.414C203.789 112.86 202.989 111.961 201.01 111.185C198.783 110.409 197.454 109.264 197.454 107.385C197.454 105.362 199.13 103.891 201.46 103.891C202.415 103.858 203.361 104.084 204.199 104.545L203.831 105.362C203.102 104.911 202.257 104.684 201.4 104.708C199.172 104.708 198.416 106.139 198.416 107.222C198.416 108.755 199.295 109.532 201.278 110.308C203.546 111.228 204.751 112.249 204.751 114.314C204.751 116.314 203.32 118.114 200.378 118.114C199.215 118.116 198.075 117.79 197.088 117.174L197.455 116.357" fill="white"/>
</g>
<defs>
<clipPath id="clip0_495_38">
<rect width="225.458" height="118.111" fill="white"/>
</clipPath>
</defs>
</svg>
