<svg width="74" height="49" viewBox="0 0 74 49" fill="none" xmlns="http://www.w3.org/2000/svg">
<path fill-rule="evenodd" clip-rule="evenodd" d="M27.64 6.81905L23.6499 9.91005L0.314941 27.9621L3.41495 31.9621L26.7399 13.9061L31.8629 20.527L34.963 24.5201L38.963 21.429L50.5519 12.4521L53.787 16.6241L58.158 8.30405L62.5179 -0.00195312L53.382 2.14206L44.2359 4.28105L47.4559 8.44806L35.8669 17.4311L30.743 10.8141L27.6429 6.81406" fill="#00C39E"/>
<path d="M10.487 40.6328H0.562988V48.5618H10.487V40.6328Z" fill="#00C39E"/>
<path d="M73.334 8.07422H63.415V48.5622H73.334V8.07422Z" fill="#00C39E"/>
<path d="M60.768 20.7705H50.849V48.5625H60.768V20.7705Z" fill="#00C39E"/>
<path d="M48.202 27.9473H38.274V48.5623H48.202V27.9473Z" fill="#00C39E"/>
<path d="M35.627 32.4521H25.709V48.5621H35.627V32.4521Z" fill="#00C39E"/>
<path d="M23.0571 38.0684H13.1331V48.5624H23.0571V38.0684Z" fill="#00C39E"/>
</svg>
